<?xml version="1.0" encoding="utf-8"?>
<!-- Generator: Adobe Illustrator 19.2.1, SVG Export Plug-In . SVG Version: 6.00 Build 0)  -->
<svg version="1.1" xmlns="http://www.w3.org/2000/svg" xmlns:xlink="http://www.w3.org/1999/xlink" x="0px" y="0px"
	 viewBox="0 0 994 722" style="enable-background:new 0 0 994 722;" xml:space="preserve">
<style type="text/css">
	.st0{opacity:0.86;}
	.st1{fill:#4A494A;}
	.st2{opacity:0.69;}
	.st3{opacity:0.63;}
	.st4{opacity:0.55;}
	.st5{opacity:0.58;}
	.st6{fill:#BCBEC0;}
	.st7{fill:#58595B;}
</style>
<g id="Layer_1">
	<g>
		<g class="st0">
			<path class="st1" d="M347.1,556.5c-0.2-1.6-4.1-67.2-6.7-108.7c-20.2-52.7-45.3-103.9-74.7-152.6c-0.6,6-0.4,17-2.2,27.1
				c-2.1-10-9.1-42.1-11.4-49c-25.6-40-54.3-78.4-85.7-114.6c-0.2,31.3,0.1,100.5-0.2,118.9c-4.2-14.4-11.5-35.1-17.1-45.2
				s-20.3-32.6-30.5-45.2c3.3,23.4,18.8,71.8,21.3,78.5c4.7,17.6,20,41.3,23.7,47c3.6,5.8,26.5,33.5,17.2,55.2
				c-18.4-35.8-34.2-39.3-43.6-48.6c-4.1-3.6-8-6.9-10.4-10.5c-4.7-5.3-16.4-33.8-27.5-47.8c-11.2-16.7-21.2-24.7-28.5-32.7
				c6.3,20.6,14.2,40.9,22.7,60.8c49.8,116.1,122.1,223.6,212.8,316.3c12,12.3,24.3,24.3,37.8,35.2c2.1-0.1,5.8-0.4,8.2-0.5
				c-0.1-2.5-1.3-21.6-1.4-23.2C350.9,615.4,347.3,558.1,347.1,556.5z"/>
		</g>
		<g class="st2">
			<path class="st1" d="M232,606.6c-19.2-46.8-19.6-48.3-18.4-98.9c1.3-53.8,25.9-103.9,44.9-154.2c24.8-65.6,40.9-134.5,47.7-204.3
				c1.1-11.2,1.6-23.4-1.6-33.9c-1.6-5.1-34.7,101.1-40.7,206.7c-4-26.8-51.2-194.8-53.6-191.8c-17.1,20.9-40.6,41-44.1,67.9
				c-1.3,9.9,0.8,62,0,79.5c-3-8.7-11.5-35.3-17.1-45.2c-1,2.1-1.9,4.1-2.9,6.2c-3.1,6.6-6.7,14.9-8.8,20.2
				c18.3,52.3,30.3,53.4,43.6,84c5.2,11.9,1,23.1,0.5,25.2c-1.1,4.6-1-5.3-13.9-21.8c-13.7-17.5-28.3-24-40.2-36.7
				c0.1,1.7,0.3,3.4,0.5,5.1c2.1,15.7,9.1,30.2,14.1,45.2c14.5,43.5,11.8,90.7,18.9,136c1.6,10.1,3.9,20.4,7,30.5
				c1.1,3.6,15.5,19.3,23.6,22.3c-6,0.8-11.2-0.8-15.6-0.9C187.8,573.9,205.9,596.1,232,606.6"/>
		</g>
		<g class="st3">
			<path class="st1" d="M347,554c-17.3-192.8-13.8-302.7-12.3-336.8c1.5-34,12.8-115.9,38.6-159.6c-6.6-3.5-13.5-6.4-20.8-7.4
				c-10.5-1.5-21.8,9.4-32,23.4c-11.4,15.7-38.7,108.9-39.7,125.4c-1.3,21.4-2.5,42.9-3.8,64.3c-2.5,44-4.9,88.7,5.1,131.6
				c6.8,29,19.2,56.5,24.6,85.8c9.1,49-1.4,101.9,18.3,147.5c2.1,4.9,5,9.9,8.7,13.8c7.4-1,13.3-1.7,18.8-1.8
				C350.6,617.8,349.2,584.9,347,554"/>
		</g>
		<g class="st4">
			<path class="st1" d="M336.1,641.4c-0.3-0.4-0.6-0.8-0.8-1.2c-45.2-62.1-88.5-124.8-133.8-186.9c-28.1-38.5-42.8-77.4-51.7-124.6
				c-11.2-7.8-18.5-13.9-23.7-21.1c-5.3-7.2-9.4-17.3-15.8-29c-2.5-0.8-4.7-1.1-7.4-0.9c-12.2,0.9-20.5,12.9-25.7,24.3
				c-10.8,23.7-15.9,49.4-18.8,75.5c22.3,46,40,62.9,81.7,105.7c24.6,28.9,21.1,47.4,51.6,65.6c-22.7,0.7-40.2-5.8-48.5-8.8
				c-8.3-3-18.5-7.5-29.2-14.2c-0.3,14.8,7.6,28.1,16.7,36c12.3,12,62.1,43.5,89.4,53.4c-13.3,8.1-44.5,15.4-65.1,14
				c-14.4,0.1-56.4-8.9-78-0.6c11.5,12.3,26.2,13.9,47.3,15.7c29.1,2.5,54.1-0.3,66.7-1.3c-3.4,3.6-5.6,6-8.6,9
				c30.5,14.6,70.1,7.1,79.1,5.5c7.2-1,58.4-13.6,74.6-15.6C336.3,641.6,337.9,643.8,336.1,641.4z"/>
		</g>
		<g class="st5">
			<path class="st1" d="M192,78.3c-1.3-2.3-3.7-8.7-11.3-8.7c-9.4,0-12.3,12.8-12.3,12.8c-4.3,5.2-0.9,151.5-2.2,195.1
				c-10.4-42.4-36.5-76.4-47.5-90.4c14.7,66.4,23.5,90.4,43,122.5c31.4-34.2,54.9-75.3,67.7-119.2C224.5,170.5,193.3,80.7,192,78.3z
				"/>
		</g>
		<g class="st5">
			<path class="st1" d="M45.2,213.5c-1.2,0.8-3.5,1.7-5,9.4c-2,4.9,3.9,45,3.2,54.7c-4.3-1.5-7.9-4.3-14.6-6.4
				c1.3,32.7,15.6,71.2,17.4,77s8.7,21.3,12,29.2c13.8-2.9,31.7-10.1,38.2-14c17.8-10.8,34.3-23.5,49.3-37.6
				c-1.3-1.3-12-7.5-18.3-16.1C119,298,110.3,276,99.9,261.4c-5.9-9.2-40-47.8-50.6-48.8C47.7,212.5,46.4,212.7,45.2,213.5z"/>
		</g>
		<g class="st5">
			<path class="st1" d="M352.3,637.7c-40.1-3.3-79.3-6.5-119.5-4.4c-15.1,0.8-30.4,2.4-45.3,0.1c-6.9-1-13.7-2.9-20.7-3.9
				c-4.3-0.4-16.1-0.5-21-1.1c-4,0.1-8.1,0.2-12.1,0.4c-17.9,0.7-35.8,1.4-53.7,2.1c-0.1,0,7.1,8.4,23.6,10.6
				c10.8,1.4,35.4,4.3,56.6,3.5c12.4-0.4,25.2-1.6,30.6-2.2c-2.7,3.8-6.8,7.4-8.1,9.1c5.7,5.3,23.4,7.2,30.8,8.1
				c33.5,4.5,88.1-12.4,95.6-13.4c6.3-1.6,30.3-6.4,43.3-6.4C352.4,639.5,352.3,638.9,352.3,637.7"/>
		</g>
	</g>
</g>
<g id="Layer_2">
	<g>
		<path class="st6" d="M835.4,93.1l-38.3,8.9c-1.7,0-3-2.2-4-6.7c-0.9-4.5-1.4-9-1.4-13.7c0-4.1,2.5-8.2,7.6-12.3
			c8-6.2,18.4-9.4,31.3-9.6c24,0,40.6,8.1,49.8,24.2c9.2,16.2,13.9,39.6,14.1,70.4l0.3,143.5c0,22.1,4.8,34.4,14.5,36.9
			c4,1,7.9,1.8,11.7,2.3c9.7,0.5,14.5,6,14.5,16.5c0,12.3-4.9,18.7-14.5,19.2c-4.2,0.3-8.2,0.9-12,1.9c-9.7,2.6-14.4,14.8-14.2,36.6
			l2.5,96.6c0,23.3-1.2,37.3-3.5,41.9c0.8,6.4,1.3,13.5,1.3,21.2c0,24.1-5.5,43.9-16.6,59.3c-11.1,15.4-27,23.1-47.9,23.1
			c-13.7,0-24.7-2.5-32.9-7.5c-8.2-5-12.3-10.3-12.3-15.8c0-5.5,1.8-9.8,5.5-12.9c3.7-3.1,7.9-4.6,12.5-4.6l31.9,7.3
			c20.7,0,31-32.1,31-96.2l-3.2-94.3c0-37.7,4-62.7,12-75c-7.8-12.1-11.7-30.8-11.7-56.2l3.2-97C866.7,129.2,856.2,93.1,835.4,93.1z
			"/>
	</g>
</g>
<g id="Layer_3">
	<g>
		<path class="st7" d="M472.1,135.5c0,2.6-1.3,3.9-3.8,3.9h-3.6c-2.5,0-3.8-1.3-3.8-3.9v-14h-20v94.9h7.7c2.4,0,3.6,1.4,3.6,4.1v4.3
			c0,2.7-1.2,4.1-3.6,4.1H421c-2.4,0-3.6-1.4-3.6-4.1v-4.3c0-2.7,1.2-4.1,3.6-4.1h7.7v-94.9h-20v14c0,2.6-1.3,3.9-3.8,3.9h-3.6
			c-2.5,0-3.8-1.3-3.8-3.9v-22.6c0-2.6,1.3-3.9,3.8-3.9h67.1c2.5,0,3.8,1.3,3.8,3.9V135.5z"/>
		<path class="st7" d="M510.8,127.3c2,0,3.1,1.2,3.1,3.5v3.6c0,2.3-1,3.5-3.1,3.5h-6.5v33.5h38.5v-33.5h-6.5c-2,0-3.1-1.2-3.1-3.5
			v-3.6c0-2.3,1-3.5,3.1-3.5h23.5c2,0,3.1,1.2,3.1,3.5v3.6c0,2.3-1,3.5-3.1,3.5h-6.5v80.4h6.5c2,0,3.1,1.2,3.1,3.5v3.6
			c0,2.3-1,3.5-3.1,3.5h-23.5c-2,0-3.1-1.2-3.1-3.5v-3.6c0-2.3,1-3.5,3.1-3.5h6.5V182h-38.5v36.2h6.5c2,0,3.1,1.2,3.1,3.5v3.6
			c0,2.3-1,3.5-3.1,3.5h-23.5c-2,0-3.1-1.2-3.1-3.5v-3.6c0-2.3,1-3.5,3.1-3.5h6.5v-80.4h-6.5c-2,0-3.1-1.2-3.1-3.5v-3.6
			c0-2.3,1-3.5,3.1-3.5H510.8z"/>
		<path class="st7" d="M626.9,127.3c2.1,0,3.2,1.1,3.2,3.3v19.1c0,2.2-1.1,3.3-3.2,3.3h-3.1c-2.1,0-3.2-1.1-3.2-3.3v-11.8h-28.9
			v33.5h27.9c2.1,0,3.2,1.1,3.2,3.3v3.9c0,2.2-1.1,3.3-3.2,3.3h-27.9v21.5c0,3,0.2,5.5,0.7,7.4c0.5,1.9,1.3,3.4,2.4,4.5
			c1.2,1.1,2.8,1.9,4.9,2.3c2.1,0.4,4.9,0.6,8.2,0.6h14.3v-14.9c0-2.2,1.1-3.3,3.2-3.3h3.1c2.1,0,3.2,1.1,3.2,3.3v22.1
			c0,2.2-1.1,3.3-3.2,3.3h-26.7c-3.8,0-7-0.5-9.7-1.6c-2.6-1.1-4.8-2.7-6.4-4.8c-1.6-2.1-2.8-4.8-3.5-8c-0.7-3.2-1-6.9-1-11.3v-65.4
			h-6.5c-2,0-3.1-1.2-3.1-3.5v-3.6c0-2.3,1-3.5,3.1-3.5H626.9z"/>
		<path class="st7" d="M440,290.1c4.4,0,8.4,0.7,12.1,2.1c3.7,1.4,6.9,3.5,9.6,6.3c2.7,2.8,4.8,6.3,6.2,10.6
			c1.5,4.2,2.2,9.3,2.2,15.1v16.1c0,10.7-2.8,19.1-8.4,25.1c-5.6,6-13,9-22.3,9h-18.4v23.3h11.2c2.4,0,3.6,1.4,3.6,4.1v4.3
			c0,2.7-1.2,4.1-3.6,4.1h-31.2c-2.4,0-3.6-1.4-3.6-4.1v-4.3c0-2.7,1.2-4.1,3.6-4.1h7.7v-94.9h-7.7c-2.4,0-3.6-1.4-3.6-4.1v-4.3
			c0-2.7,1.2-4.1,3.6-4.1H440z M421.1,302.6v59.1h17.4c6.8,0,11.6-1.8,14.4-5.5c2.8-3.7,4.3-8.7,4.3-15v-17.9
			c0-7.5-1.6-12.8-4.9-15.9c-3.3-3.1-8-4.7-14.3-4.7H421.1z"/>
		<path class="st7" d="M515.2,306.9c10,0,17.5,3,22.6,9.1c5,6.1,7.6,15.8,7.6,29.1v28.4c0,13.3-2.6,23-7.7,29c-5.1,6-12.6,9-22.4,9
			c-9.8,0-17.3-3-22.4-9c-5.1-6-7.6-15.7-7.6-29v-28.4c0-13.3,2.5-23,7.6-29.1C497.9,309.9,505.4,306.9,515.2,306.9z M515.2,400.9
			c6.4,0,11.2-1.9,14.4-5.8c3.2-3.9,4.8-9.9,4.8-18.1v-35.3c0-8.2-1.6-14.3-4.8-18.2s-8-5.9-14.4-5.9c-6.4,0-11.2,2-14.3,5.9
			c-3.1,3.9-4.7,10-4.7,18.2V377c0,8.2,1.6,14.2,4.7,18.1C504,399,508.8,400.9,515.2,400.9z"/>
		<path class="st7" d="M577,308.4c1.8,0,3.1,0.9,4,2.7l37.7,74.5c0.7,1.5,1.4,2.3,1.9,2.3c0.5,0,0.7-0.3,0.8-0.8
			c0.1-0.6,0.1-1.7,0.1-3.4V319h-6.5c-2,0-3.1-1.2-3.1-3.5v-3.6c0-2.3,1-3.5,3.1-3.5h23.5c2,0,3.1,1.2,3.1,3.5v3.6
			c0,2.3-1,3.5-3.1,3.5H632v86.7c0,2.8-1.2,4.2-3.8,4.2h-5.1c-1.8,0-3.1-0.9-4-2.7l-37.7-74.5c-0.7-1.5-1.4-2.3-1.9-2.3
			c-0.6,0-1,1.4-1,4.2v64.6h6.5c2,0,3.1,1.2,3.1,3.5v3.6c0,2.3-1,3.5-3.1,3.5h-23.5c-2,0-3.1-1.2-3.1-3.5v-3.6c0-2.3,1-3.5,3.1-3.5
			h6.5V319h-6.5c-2,0-3.1-1.2-3.1-3.5v-3.6c0-2.3,1-3.5,3.1-3.5H577z"/>
		<path class="st7" d="M660.9,319h-6.5c-2,0-3.1-1.2-3.1-3.5v-3.6c0-2.3,1-3.5,3.1-3.5h33.3c9.9,0,17.4,3,22.4,8.9
			c5,6,7.6,15.5,7.6,28.5v26.7c0,13-2.5,22.5-7.6,28.5c-5.1,6-12.6,8.9-22.4,8.9h-33.3c-2,0-3.1-1.2-3.1-3.5v-3.6
			c0-2.3,1-3.5,3.1-3.5h6.5V319z M687.8,399.4c6.4,0,11.2-1.9,14.3-5.7c3.1-3.8,4.7-9.7,4.7-17.7v-33.7c0-8-1.6-13.9-4.7-17.7
			c-3.1-3.8-7.9-5.7-14.3-5.7h-16.4v80.4H687.8z"/>
		<path class="st7" d="M736.2,312.4c0.4-1.6,1-2.7,1.9-3.2c0.9-0.5,2.1-0.8,3.7-0.8h4.3c1.3,0,2.3,0.4,2.9,1.1
			c0.6,0.7,0.6,1.8,0,3.2l-10.4,23.2c-0.6,1.3-1.7,2-3.3,2h-3.5c-1.2,0-1.7-0.7-1.4-2L736.2,312.4z"/>
		<path class="st7" d="M783.5,411.5c-8.7,0-15.4-2.5-20.1-7.5c-4.7-5-7-11.9-7-20.5c0-2.7,1.2-4.1,3.8-4.1h3.8
			c2.1,0,3.2,1.1,3.2,3.3c0,6.1,1.4,10.6,4.3,13.6c2.9,3,6.9,4.5,12.1,4.5c5.2,0,9.2-1.4,12.1-4.2c2.9-2.8,4.3-6.5,4.3-11.3
			c0-4.3-1-7.8-3.1-10.5c-2.1-2.6-4.7-4.9-7.8-6.8c-3.1-1.9-6.5-3.7-10.1-5.3c-3.6-1.6-7-3.6-10.1-5.9c-3.1-2.3-5.7-5.2-7.8-8.7
			s-3.1-8-3.1-13.6c0-9,2.3-15.9,6.9-20.6c4.6-4.8,10.9-7.1,18.8-7.1c8.2,0,14.6,2.4,19,7.1c4.4,4.8,6.7,11.5,6.8,20.2
			c0,2.8-1.3,4.2-3.8,4.2h-3.9c-2.1,0-3.2-1.2-3.2-3.5c-0.1-6.1-1.4-10.5-4-13.3c-2.6-2.8-6.3-4.2-11-4.2c-5,0-8.8,1.3-11.3,4
			c-2.5,2.7-3.8,6.6-3.8,11.8c0,4.2,1,7.7,3.1,10.2c2.1,2.6,4.7,4.8,7.8,6.7c3.1,1.9,6.5,3.6,10.1,5.2c3.6,1.6,7,3.6,10.1,5.9
			c3.1,2.3,5.7,5.3,7.8,8.9c2.1,3.6,3.1,8.3,3.1,14c0,4.3-0.7,8.2-2.1,11.6c-1.4,3.4-3.3,6.2-5.8,8.6c-2.5,2.3-5.3,4.1-8.6,5.3
			C790.8,410.9,787.3,411.5,783.5,411.5z"/>
		<path class="st7" d="M460.2,471.2c2.5,0,3.8,1.3,3.8,3.9v22.6c0,2.6-1.3,3.9-3.8,3.9h-3.6c-2.5,0-3.8-1.3-3.8-3.9v-14h-34.1v39.6
			h33c2.5,0,3.8,1.3,3.8,3.9v4.7c0,2.6-1.3,3.9-3.8,3.9h-33v25.4c0,3.6,0.3,6.5,0.8,8.7c0.5,2.2,1.5,4,2.9,5.3
			c1.4,1.3,3.3,2.2,5.8,2.7c2.5,0.5,5.7,0.7,9.7,0.7h16.9V561c0-2.6,1.3-3.9,3.8-3.9h3.6c2.5,0,3.8,1.3,3.8,3.9v26.1
			c0,2.6-1.3,3.9-3.8,3.9h-31.5c-4.5,0-8.3-0.6-11.4-1.9c-3.1-1.3-5.6-3.1-7.5-5.6c-1.9-2.5-3.3-5.6-4.1-9.4
			c-0.8-3.8-1.2-8.2-1.2-13.3v-77.2h-7.7c-2.4,0-3.6-1.4-3.6-4.1v-4.3c0-2.7,1.2-4.1,3.6-4.1H460.2z"/>
		<path class="st7" d="M489.2,500.1h-6.5c-2,0-3.1-1.2-3.1-3.5V493c0-2.3,1-3.5,3.1-3.5h33.3c9.9,0,17.4,3,22.4,8.9
			c5,6,7.6,15.5,7.6,28.5v26.7c0,13-2.5,22.5-7.6,28.5c-5.1,6-12.6,8.9-22.4,8.9h-33.3c-2,0-3.1-1.2-3.1-3.5V584
			c0-2.3,1-3.5,3.1-3.5h6.5V500.1z M516.1,580.5c6.4,0,11.2-1.9,14.3-5.7c3.1-3.8,4.7-9.7,4.7-17.7v-33.7c0-8-1.6-13.9-4.7-17.7
			c-3.1-3.8-7.9-5.7-14.3-5.7h-16.4v80.4H516.1z"/>
		<path class="st7" d="M619.6,565.5c0,4.2-0.7,8-2.2,11.4c-1.5,3.3-3.5,6.2-6.1,8.6c-2.6,2.4-5.6,4.2-9,5.4c-3.4,1.2-7,1.8-10.9,1.8
			c-9.8,0-17.3-3-22.4-9.1c-5.1-6.1-7.6-15.7-7.6-29v-28.4c0-13.3,2.5-23,7.6-29.1c5.1-6.1,12.5-9.1,22.4-9.1c4,0,7.7,0.6,11.1,1.7
			c3.4,1.2,6.4,2.9,8.9,5.2s4.4,5.1,5.8,8.5c1.4,3.4,2.1,7.4,2.1,11.9c0,2.8-1.2,4.2-3.8,4.2h-3.9c-2.1,0-3.2-1.2-3.2-3.5
			c0-6.1-1.6-10.5-4.7-13.3c-3.1-2.8-7.2-4.2-12.4-4.2c-6.4,0-11.2,2-14.3,5.9c-3.1,3.9-4.7,10-4.7,18.2v35.2
			c0,8.3,1.6,14.4,4.7,18.3c3.1,3.9,7.9,5.8,14.3,5.8c5.4,0,9.6-1.4,12.6-4.2c3.1-2.8,4.6-7.3,4.6-13.3v-14.3H595
			c-2.1,0-3.2-1.1-3.2-3.3v-3.9c0-2.2,1.1-3.3,3.2-3.3h21.3c2.2,0,3.3,1.2,3.3,3.5V565.5z"/>
		<path class="st7" d="M683.5,489.5c2.1,0,3.2,1.1,3.2,3.3V512c0,2.2-1.1,3.3-3.2,3.3h-3.1c-2.1,0-3.2-1.1-3.2-3.3v-11.8h-28.9v33.5
			h27.9c2.1,0,3.2,1.1,3.2,3.3v3.9c0,2.2-1.1,3.3-3.2,3.3h-27.9v21.5c0,3,0.2,5.5,0.7,7.4c0.5,1.9,1.3,3.4,2.4,4.5
			c1.2,1.1,2.8,1.9,4.9,2.3c2.1,0.4,4.9,0.6,8.2,0.6h14.3v-14.9c0-2.2,1.1-3.3,3.2-3.3h3.1c2.1,0,3.2,1.1,3.2,3.3v22.1
			c0,2.2-1.1,3.3-3.2,3.3h-26.7c-3.8,0-7-0.5-9.7-1.6c-2.6-1.1-4.8-2.7-6.4-4.8c-1.6-2.1-2.8-4.8-3.5-8c-0.7-3.2-1-6.9-1-11.3v-65.4
			h-6.5c-2,0-3.1-1.2-3.1-3.5V493c0-2.3,1-3.5,3.1-3.5H683.5z"/>
	</g>
</g>
</svg>
