<?xml version="1.0" encoding="utf-8"?>
<!-- Generator: Adobe Illustrator 19.2.1, SVG Export Plug-In . SVG Version: 6.00 Build 0)  -->
<svg version="1.1" xmlns="http://www.w3.org/2000/svg" xmlns:xlink="http://www.w3.org/1999/xlink" x="0px" y="0px"
	 viewBox="0 0 994 722" style="enable-background:new 0 0 994 722;" xml:space="preserve">
<style type="text/css">
	.st0{opacity:0.86;}
	.st1{fill:#D2D945;}
	.st2{opacity:0.69;}
	.st3{fill:#F04F52;}
	.st4{opacity:0.63;}
	.st5{fill:#00BCC4;}
	.st6{opacity:0.55;}
	.st7{fill:#C01E56;}
	.st8{opacity:0.58;}
	.st9{fill:#F2A341;}
	.st10{fill:#BCBEC0;}
	.st11{font-family:'Amatic-Bold';}
	.st12{font-size:788.0861px;}
	.st13{fill:#58595B;}
	.st14{font-family:'HansomSlabFY-Regular';}
	.st15{font-size:179.0074px;}
	.st16{font-size:151.6298px;}
	.st17{font-size:212.0982px;}
</style>
<g id="Layer_1">
	<g>
		<g class="st0">
			<path class="st1" d="M347.1,556.5c-0.2-1.6-4.1-67.2-6.7-108.7c-20.2-52.7-45.3-103.9-74.7-152.6c-0.6,6-0.4,17-2.2,27.1
				c-2.1-10-9.1-42.1-11.4-49c-25.6-40-54.3-78.4-85.7-114.6c-0.2,31.3,0.1,100.5-0.2,118.9c-4.2-14.4-11.5-35.1-17.1-45.2
				s-20.3-32.6-30.5-45.2c3.3,23.4,18.8,71.8,21.3,78.5c4.7,17.6,20,41.3,23.7,47c3.6,5.8,26.5,33.5,17.2,55.2
				c-18.4-35.8-34.2-39.3-43.6-48.6c-4.1-3.6-8-6.9-10.4-10.5c-4.7-5.3-16.4-33.8-27.5-47.8c-11.2-16.7-21.2-24.7-28.5-32.7
				c6.3,20.6,14.2,40.9,22.7,60.8c49.8,116.1,122.1,223.6,212.8,316.3c12,12.3,24.3,24.3,37.8,35.2c2.1-0.1,5.8-0.4,8.2-0.5
				c-0.1-2.5-1.3-21.6-1.4-23.2C350.9,615.4,347.3,558.1,347.1,556.5z"/>
		</g>
		<g class="st2">
			<path class="st3" d="M232,606.6c-19.2-46.8-19.6-48.3-18.4-98.9c1.3-53.8,25.9-103.9,44.9-154.2c24.8-65.6,40.9-134.5,47.7-204.3
				c1.1-11.2,1.6-23.4-1.6-33.9c-1.6-5.1-34.7,101.1-40.7,206.7c-4-26.8-51.2-194.8-53.6-191.8c-17.1,20.9-40.6,41-44.1,67.9
				c-1.3,9.9,0.8,62,0,79.5c-3-8.7-11.5-35.3-17.1-45.2c-1,2.1-1.9,4.1-2.9,6.2c-3.1,6.6-6.7,14.9-8.8,20.2
				c18.3,52.3,30.3,53.4,43.6,84c5.2,11.9,1,23.1,0.5,25.2c-1.1,4.6-1-5.3-13.9-21.8c-13.7-17.5-28.3-24-40.2-36.7
				c0.1,1.7,0.3,3.4,0.5,5.1c2.1,15.7,9.1,30.2,14.1,45.2c14.5,43.5,11.8,90.7,18.9,136c1.6,10.1,3.9,20.4,7,30.5
				c1.1,3.6,15.5,19.3,23.6,22.3c-6,0.8-11.2-0.8-15.6-0.9C187.8,573.9,205.9,596.1,232,606.6"/>
		</g>
		<g class="st4">
			<path class="st5" d="M347,554c-17.3-192.8-13.8-302.7-12.3-336.8c1.5-34,12.8-115.9,38.6-159.6c-6.6-3.5-13.5-6.4-20.8-7.4
				c-10.5-1.5-21.8,9.4-32,23.4c-11.4,15.7-38.7,108.9-39.7,125.4c-1.3,21.4-2.5,42.9-3.8,64.3c-2.5,44-4.9,88.7,5.1,131.6
				c6.8,29,19.2,56.5,24.6,85.8c9.1,49-1.4,101.9,18.3,147.5c2.1,4.9,5,9.9,8.7,13.8c7.4-1,13.3-1.7,18.8-1.8
				C350.6,617.8,349.2,584.9,347,554"/>
		</g>
		<g class="st6">
			<path class="st7" d="M336.1,641.4c-0.3-0.4-0.6-0.8-0.8-1.2c-45.2-62.1-88.5-124.8-133.8-186.9c-28.1-38.5-42.8-77.4-51.7-124.6
				c-11.2-7.8-18.5-13.9-23.7-21.1s-9.4-17.3-15.8-29c-2.5-0.8-4.7-1.1-7.4-0.9c-12.2,0.9-20.5,12.9-25.7,24.3
				c-10.8,23.7-15.9,49.4-18.8,75.5c22.3,46,40,62.9,81.7,105.7c24.6,28.9,21.1,47.4,51.6,65.6c-22.7,0.7-40.2-5.8-48.5-8.8
				c-8.3-3-18.5-7.5-29.2-14.2c-0.3,14.8,7.6,28.1,16.7,36c12.3,12,62.1,43.5,89.4,53.4c-13.3,8.1-44.5,15.4-65.1,14
				c-14.4,0.1-56.4-8.9-78-0.6c11.5,12.3,26.2,13.9,47.3,15.7c29.1,2.5,54.1-0.3,66.7-1.3c-3.4,3.6-5.6,6-8.6,9
				c30.5,14.6,70.1,7.1,79.1,5.5c7.2-1,58.4-13.6,74.6-15.6C336.3,641.6,337.9,643.8,336.1,641.4z"/>
		</g>
		<g class="st8">
			<path class="st9" d="M192,78.3c-1.3-2.3-3.7-8.7-11.3-8.7c-9.4,0-12.3,12.8-12.3,12.8c-4.3,5.2-0.9,151.5-2.2,195.1
				c-10.4-42.4-36.5-76.4-47.5-90.4c14.7,66.4,23.5,90.4,43,122.5c31.4-34.2,54.9-75.3,67.7-119.2C224.5,170.5,193.3,80.7,192,78.3z
				"/>
		</g>
		<g class="st8">
			<path class="st9" d="M45.2,213.5c-1.2,0.8-3.5,1.7-5,9.4c-2,4.9,3.9,45,3.2,54.7c-4.3-1.5-7.9-4.3-14.6-6.4
				c1.3,32.7,15.6,71.2,17.4,77s8.7,21.3,12,29.2c13.8-2.9,31.7-10.1,38.2-14c17.8-10.8,34.3-23.5,49.3-37.6
				c-1.3-1.3-12-7.5-18.3-16.1C119,298,110.3,276,99.9,261.4c-5.9-9.2-40-47.8-50.6-48.8C47.7,212.5,46.4,212.7,45.2,213.5z"/>
		</g>
		<g class="st8">
			<path class="st9" d="M352.3,637.7c-40.1-3.3-79.3-6.5-119.5-4.4c-15.1,0.8-30.4,2.4-45.3,0.1c-6.9-1-13.7-2.9-20.7-3.9
				c-4.3-0.4-16.1-0.5-21-1.1c-4,0.1-8.1,0.2-12.1,0.4c-17.9,0.7-35.8,1.4-53.7,2.1c-0.1,0,7.1,8.4,23.6,10.6
				c10.8,1.4,35.4,4.3,56.6,3.5c12.4-0.4,25.2-1.6,30.6-2.2c-2.7,3.8-6.8,7.4-8.1,9.1c5.7,5.3,23.4,7.2,30.8,8.1
				c33.5,4.5,88.1-12.4,95.6-13.4c6.3-1.6,30.3-6.4,43.3-6.4C352.4,639.5,352.3,638.9,352.3,637.7"/>
		</g>
	</g>
</g>
<g id="Layer_2">
	<text transform="matrix(0.8218 0 0 1 753.458 634.917)" class="st10 st11 st12">}</text>
</g>
<g id="Layer_3">
	<text transform="matrix(0.9163 0 0 1 390.9443 228.8945)"><tspan x="0" y="0" class="st13 st14 st15">T</tspan><tspan x="95.8" y="0" class="st13 st14 st16">HE</tspan><tspan x="270.4" y="0" class="st13 st14 st17"> </tspan><tspan x="0" y="181.1" class="st13 st14 st15">P</tspan><tspan x="94.5" y="181.1" class="st13 st14 st16">OND’S</tspan><tspan x="0" y="362.2" class="st13 st14 st15">E</tspan><tspan x="90.8" y="362.2" class="st13 st14 st16">DGE </tspan></text>
</g>
</svg>
