<?xml version="1.0" encoding="utf-8"?>
<!-- Generator: Adobe Illustrator 19.2.1, SVG Export Plug-In . SVG Version: 6.00 Build 0)  -->
<svg version="1.1" xmlns="http://www.w3.org/2000/svg" xmlns:xlink="http://www.w3.org/1999/xlink" x="0px" y="0px"
	 viewBox="0 0 2287 1693.3" style="enable-background:new 0 0 2287 1693.3;" xml:space="preserve">
<style type="text/css">
	.st0{opacity:0.86;}
	.st1{fill:#D2D945;}
	.st2{opacity:0.69;}
	.st3{fill:#F04F52;}
	.st4{opacity:0.63;}
	.st5{fill:#00BCC4;}
	.st6{opacity:0.55;}
	.st7{fill:#C01E56;}
	.st8{opacity:0.58;}
	.st9{fill:#F2A341;}
	.st10{fill:#BCBEC0;}
	.st11{fill:#58595B;}
</style>
<g id="Layer_1">
	<g>
		<g class="st0">
			<path class="st1" d="M788.7,1285.4c-0.4-3.7-9.8-158.7-15.9-256.7C725,904.2,665.8,783.4,596.3,668.2c-1.4,14.1-1,40.1-5.2,64
				c-4.9-23.7-21.5-99.6-27-115.7C503.7,521.9,436,431.3,361.7,345.7c-0.5,74,0.3,237.4-0.4,280.9c-9.9-34.1-27.1-83-40.3-106.8
				s-47.9-76.9-71.9-106.7c7.9,55.3,44.4,169.7,50.3,185.5c11,41.5,47.4,97.5,56,111.1s62.5,79.2,40.7,130.5
				c-43.5-84.6-80.7-92.9-102.9-114.8c-9.6-8.4-18.9-16.2-24.6-24.9c-11-12.5-38.8-79.8-65.1-112.9c-26.6-39.5-50.2-58.4-67.3-77.3
				C151,559.1,169.7,607,189.8,654c117.6,274.2,288.4,528.2,502.6,747.1c28.3,29,57.5,57.4,89.3,83.2c4.9-0.2,13.7-1,19.5-1.2
				c-0.3-5.9-3.1-51-3.3-54.8C797.5,1424.5,789.1,1289.2,788.7,1285.4z"/>
		</g>
		<g class="st2">
			<path class="st3" d="M516.7,1403.8c-45.3-110.6-46.4-114.2-43.5-233.7c3.1-127.1,61.1-245.3,106.2-364.3
				c58.7-154.9,96.7-317.7,112.7-482.6c2.6-26.5,3.8-55.3-3.8-80.1c-3.8-12.2-82.1,238.8-96.1,488.3
				c-9.4-63.3-120.9-460.1-126.5-453.1c-40.5,49.3-96,96.8-104.3,160.4c-3,23.4,1.9,146.4,0,187.9c-7-20.5-27-83.3-40.3-106.8
				c-2.3,4.9-4.6,9.7-6.8,14.6c-7.2,15.6-15.8,35.3-20.7,47.7c43.3,123.5,71.5,126.2,103,198.5c12.2,28.1,2.4,54.6,1.2,59.6
				c-2.6,10.8-2.3-12.6-32.8-51.4c-32.5-41.4-66.8-56.7-94.9-86.6c0.3,4,0.7,8,1.2,12c5,37.1,21.5,71.4,33.3,106.9
				c34.2,102.8,28,214.2,44.7,321.2c3.7,23.9,9.2,48.2,16.5,72c2.6,8.6,36.5,45.5,55.8,52.6c-14.2,2-26.4-2-36.9-2.1
				C412.2,1326.4,455,1378.9,516.7,1403.8"/>
		</g>
		<g class="st4">
			<path class="st5" d="M788.4,1279.5c-40.8-455.4-32.6-715.1-29.1-795.5c3.5-80.4,30.3-273.7,91.2-377
				c-15.6-8.2-31.8-15.2-49.2-17.6c-24.7-3.4-51.5,22.2-75.5,55.3c-27,37.2-91.5,257.2-93.9,296.2c-3.1,50.6-6,101.2-8.9,151.9
				c-5.9,103.9-11.7,209.6,12,310.9c16,68.5,45.3,133.5,58.1,202.7c21.4,115.6-3.2,240.6,43.2,348.5c5,11.5,11.9,23.4,20.5,32.5
				c17.4-2.3,31.5-4.1,44.3-4.1C797,1430.1,793.6,1352.5,788.4,1279.5"/>
		</g>
		<g class="st6">
			<path class="st7" d="M762.7,1485.9c-0.7-0.9-1.3-1.8-2-2.7c-106.7-146.8-209-294.9-316.2-441.6
				c-66.4-90.8-101.2-182.9-122.1-294.4c-26.5-18.5-43.6-32.8-56.1-49.9c-12.5-17.1-22.2-40.9-37.3-68.5c-5.9-2-11.1-2.6-17.5-2.1
				c-28.8,2.2-48.4,30.6-60.6,57.4c-25.5,55.9-37.4,116.7-44.3,178.3c52.7,108.8,94.4,148.5,193.1,249.6
				c58.1,68.2,49.8,111.9,121.8,154.8c-53.5,1.6-94.9-13.8-114.6-20.9c-19.7-7.1-43.7-17.7-68.9-33.5c-0.8,35,17.9,66.4,39.5,85
				c29,28.4,146.8,102.8,211.3,126c-31.3,19.2-105.1,36.3-153.8,33c-34,0.3-133.2-20.9-184.2-1.3c27.1,29,61.9,32.8,111.8,37.1
				c68.8,5.9,127.8-0.7,157.6-3.2c-8.1,8.4-13.2,14.1-20.2,21.2c72,34.6,165.6,16.8,186.9,12.9c16.9-2.4,138-32.2,176.2-37
				C763,1486.5,766.9,1491.7,762.7,1485.9z"/>
		</g>
		<g class="st8">
			<path class="st9" d="M422.3,155.9c-3.2-5.5-8.7-20.5-26.7-20.5c-22.1,0-28.9,30.3-28.9,30.3c-10.1,12.2-2.2,357.9-5.3,460.9
				C336.8,526.4,275.2,446.3,249,413.2c34.6,156.9,55.5,213.4,101.6,289.3c74.2-80.8,129.6-177.8,159.9-281.7
				C499,373.6,425.5,161.4,422.3,155.9z"/>
		</g>
		<g class="st8">
			<path class="st9" d="M75.6,475.2c-2.9,1.9-8.3,3.9-11.7,22.2c-4.6,11.5,9.2,106.2,7.5,129.2c-10.2-3.6-18.6-10.1-34.6-15
				c3,77.2,36.8,168.1,41.2,181.9c4.4,13.8,20.5,50.4,28.4,69c32.7-6.9,75-23.9,90.2-33.2c42-25.6,81-55.5,116.6-88.9
				c-3.1-3-28.3-17.8-43.3-38.1c-20.1-27.5-40.6-79.4-65.3-114c-13.9-21.7-94.5-113-119.6-115.2C81.5,472.8,78.4,473.4,75.6,475.2z"
				/>
		</g>
		<g class="st8">
			<path class="st9" d="M800.8,1477.2c-94.7-7.8-187.3-15.4-282.2-10.4c-35.7,1.9-71.7,5.6-107.1,0.3c-16.4-2.4-32.4-6.8-48.8-9.2
				c-10.3-1-37.9-1.3-49.5-2.6c-9.5,0.1-19.1,0.5-28.6,0.9c-42.3,1.7-84.6,3.4-126.9,5.1c-0.2,0,16.9,19.9,55.9,24.9
				c25.5,3.3,83.6,10.1,133.8,8.3c29.4-1.1,59.6-3.8,72.3-5.3c-6.4,9-15.9,17.4-19.2,21.6c13.5,12.6,55.2,17.1,72.6,19.2
				c79.1,10.6,208.2-29.2,225.9-31.6c14.9-3.7,71.6-15.1,102.3-15C801.1,1481.5,800.9,1480,800.8,1477.2"/>
		</g>
	</g>
</g>
<g id="Layer_2">
	<g>
		<path class="st10" d="M1900.6,211.7l-87.2,20.2c-3.9,0-6.8-5.1-9-15.3c-2.2-10.2-3.2-20.6-3.2-31.1c0-9.4,5.8-18.7,17.3-28.1
			c18.2-14,42-21.3,71.3-21.9c54.8,0,92.6,18.4,113.5,55.3c20.9,36.8,31.6,90.3,32.1,160.4l0.7,327.1c0,50.3,11,78.3,33.1,84.2
			c9.1,2.3,18,4.1,26.7,5.3c22.1,1.2,33.1,13.7,33.1,37.7c0,28.1-11.1,42.7-33.1,43.8c-9.6,0.6-18.7,2.1-27.4,4.4
			c-22.1,5.8-32.9,33.6-32.4,83.3l5.8,220.1c0,53.2-2.6,85-7.9,95.6c1.9,14.6,2.9,30.7,2.9,48.2c0,54.9-12.6,100-37.8,135
			c-25.2,35.1-61.6,52.6-109.1,52.6c-31.2,0-56.2-5.7-75-17.1c-18.7-11.4-28.1-23.4-28.1-35.9c0-12.6,4.2-22.4,12.6-29.4
			c8.4-7,17.9-10.5,28.5-10.5l72.8,16.6c47.1,0,70.6-73.1,70.6-219.2l-7.2-214.8c0-85.9,9.1-142.9,27.4-171
			c-17.8-27.5-26.7-70.1-26.7-128l7.2-221C1972,293.9,1948.2,211.7,1900.6,211.7z"/>
	</g>
</g>
<g id="Layer_3">
	<g>
		<path class="st11" d="M1084,290.8c0,6.2-3,9.3-8.9,9.3h-8.5c-5.9,0-8.9-3.1-8.9-9.3v-33h-47.3V482h18.2c5.7,0,8.5,3.2,8.5,9.7
			v10.1c0,6.5-2.8,9.7-8.5,9.7h-65.5c-5.7,0-8.5-3.2-8.5-9.7v-10.1c0-6.5,2.8-9.7,8.5-9.7h18.2V257.9H934v33c0,6.2-3,9.3-8.9,9.3
			h-8.5c-5.9,0-8.9-3.1-8.9-9.3v-53.3c0-6.2,3-9.3,8.9-9.3h158.5c5.9,0,8.9,3.1,8.9,9.3V290.8z"/>
		<path class="st11" d="M1175.3,271.6c4.8,0,7.2,2.7,7.2,8.2v8.6c0,5.5-2.4,8.2-7.2,8.2h-15.4v79.2h90.9v-79.2h-15.4
			c-4.8,0-7.2-2.7-7.2-8.2v-8.6c0-5.5,2.4-8.2,7.2-8.2h55.5c4.8,0,7.2,2.7,7.2,8.2v8.6c0,5.5-2.4,8.2-7.2,8.2h-15.4v189.8h15.4
			c4.8,0,7.2,2.7,7.2,8.2v8.6c0,5.5-2.4,8.2-7.2,8.2h-55.5c-4.8,0-7.2-2.7-7.2-8.2v-8.6c0-5.5,2.4-8.2,7.2-8.2h15.4v-85.6h-90.9
			v85.6h15.4c4.8,0,7.2,2.7,7.2,8.2v8.6c0,5.5-2.4,8.2-7.2,8.2h-55.5c-4.8,0-7.2-2.7-7.2-8.2v-8.6c0-5.5,2.4-8.2,7.2-8.2h15.4V296.7
			h-15.4c-4.8,0-7.2-2.7-7.2-8.2v-8.6c0-5.5,2.4-8.2,7.2-8.2H1175.3z"/>
		<path class="st11" d="M1449.6,271.6c5,0,7.5,2.6,7.5,7.9v45.1c0,5.3-2.5,7.9-7.5,7.9h-7.2c-5,0-7.5-2.6-7.5-7.9v-27.9h-68.3v79.2
			h66c5,0,7.5,2.6,7.5,7.9v9.3c0,5.3-2.5,7.9-7.5,7.9h-66v50.9c0,7.2,0.5,13,1.6,17.4c1.1,4.4,3,7.9,5.7,10.6
			c2.7,2.6,6.6,4.4,11.7,5.4c5,1,11.5,1.4,19.4,1.4h33.8v-35.1c0-5.2,2.5-7.9,7.5-7.9h7.2c5,0,7.5,2.6,7.5,7.9v52.3
			c0,5.3-2.5,7.9-7.5,7.9h-63c-9,0-16.6-1.3-22.8-3.8c-6.2-2.5-11.3-6.3-15.1-11.3c-3.8-5-6.6-11.3-8.2-18.8
			c-1.6-7.5-2.5-16.4-2.5-26.7V296.7h-15.4c-4.8,0-7.2-2.7-7.2-8.2v-8.6c0-5.5,2.4-8.2,7.2-8.2H1449.6z"/>
		<path class="st11" d="M1008,656.1c10.3,0,19.9,1.6,28.7,4.9c8.8,3.2,16.3,8.2,22.7,14.8c6.3,6.6,11.2,14.9,14.7,24.9
			c3.5,10,5.2,21.9,5.2,35.7v38.1c0,25.4-6.6,45.1-19.8,59.2c-13.2,14.1-30.7,21.1-52.7,21.1h-43.4v55h26.3c5.7,0,8.5,3.2,8.5,9.7
			v10.1c0,6.5-2.8,9.7-8.5,9.7h-73.6c-5.7,0-8.5-3.2-8.5-9.7v-10.1c0-6.5,2.8-9.7,8.5-9.7h18.2V685.7h-18.2c-5.7,0-8.5-3.2-8.5-9.7
			v-10.1c0-6.5,2.8-9.7,8.5-9.7H1008z M963.5,685.7v139.5h41.1c16,0,27.4-4.4,34.1-13.1c6.7-8.7,10.1-20.6,10.1-35.5v-42.3
			c0-17.8-3.9-30.3-11.6-37.6c-7.7-7.3-19-11-33.7-11H963.5z"/>
		<path class="st11" d="M1185.7,695.8c23.6,0,41.4,7.2,53.3,21.5c11.9,14.3,17.9,37.2,17.9,68.8v67c0,31.5-6.1,54.4-18.2,68.6
			c-12.1,14.2-29.8,21.3-53,21.3c-23.2,0-40.8-7.1-52.8-21.3c-12-14.2-18.1-37.1-18.1-68.6v-67c0-31.5,6-54.4,18.1-68.8
			C1144.9,703,1162.5,695.8,1185.7,695.8z M1185.7,917.9c15.1,0,26.4-4.6,34-13.8c7.5-9.2,11.3-23.5,11.3-42.8v-83.5
			c0-19.3-3.8-33.7-11.3-43s-18.9-14-34-14c-15.1,0-26.4,4.7-33.8,14c-7.4,9.3-11.2,23.6-11.2,43v83.5c0,19.3,3.7,33.6,11.2,42.8
			C1159.3,913.3,1170.6,917.9,1185.7,917.9z"/>
		<path class="st11" d="M1331.8,699.4c4.2,0,7.3,2.1,9.5,6.4l88.9,175.9c1.7,3.6,3.3,5.4,4.6,5.4c1.1,0,1.7-0.7,2-2
			c0.2-1.3,0.3-4,0.3-8.1V724.5h-15.4c-4.8,0-7.2-2.7-7.2-8.2v-8.6c0-5.5,2.4-8.2,7.2-8.2h55.5c4.8,0,7.2,2.7,7.2,8.2v8.6
			c0,5.5-2.4,8.2-7.2,8.2h-15.4v204.9c0,6.7-3,10-8.9,10h-12.1c-4.2,0-7.3-2.1-9.5-6.4l-88.9-175.9c-1.8-3.6-3.3-5.4-4.6-5.4
			c-1.5,0-2.3,3.3-2.3,10v152.6h15.4c4.8,0,7.2,2.7,7.2,8.2v8.6c0,5.5-2.4,8.2-7.2,8.2h-55.5c-4.8,0-7.2-2.7-7.2-8.2v-8.6
			c0-5.5,2.4-8.2,7.2-8.2h15.4V724.5h-15.4c-4.8,0-7.2-2.7-7.2-8.2v-8.6c0-5.5,2.4-8.2,7.2-8.2H1331.8z"/>
		<path class="st11" d="M1530,724.5h-15.4c-4.8,0-7.2-2.7-7.2-8.2v-8.6c0-5.5,2.4-8.2,7.2-8.2h78.8c23.4,0,41.1,7,53,21.1
			c11.9,14.1,17.9,36.5,17.9,67.3v63c0,30.8-6,53.2-18.1,67.3c-12,14.1-29.6,21.1-52.8,21.1h-78.8c-4.8,0-7.2-2.7-7.2-8.2v-8.6
			c0-5.5,2.4-8.2,7.2-8.2h15.4V724.5z M1593.3,914.3c15.1,0,26.4-4.5,33.8-13.4c7.4-9,11.2-22.9,11.2-41.7v-79.5
			c0-18.9-3.7-32.8-11.2-41.7c-7.4-9-18.7-13.4-33.8-13.4h-38.7v189.8H1593.3z"/>
		<path class="st11" d="M1707.9,708.7c0.9-3.8,2.3-6.3,4.4-7.5c2.1-1.2,5-1.8,8.7-1.8h10.2c3.1,0,5.4,0.8,6.9,2.5
			c1.5,1.7,1.5,4.2,0,7.5l-24.6,54.8c-1.3,3.1-3.9,4.7-7.9,4.7h-8.2c-2.8,0-3.9-1.5-3.3-4.7L1707.9,708.7z"/>
		<path class="st11" d="M1819.4,943c-20.6,0-36.4-5.9-47.4-17.7c-11.1-11.8-16.6-28-16.6-48.5c0-6.4,3-9.7,8.9-9.7h8.9
			c5,0,7.5,2.6,7.5,7.9c0,14.3,3.4,25.1,10.2,32.2c6.8,7.2,16.3,10.7,28.6,10.7c12.3,0,21.8-3.3,28.6-9.8
			c6.8-6.6,10.2-15.5,10.2-26.7c0-10.3-2.5-18.5-7.4-24.7c-4.9-6.2-11.1-11.6-18.4-16.1c-7.3-4.5-15.3-8.7-23.8-12.5
			c-8.5-3.8-16.5-8.5-23.8-14c-7.3-5.5-13.5-12.4-18.4-20.6c-4.9-8.2-7.4-18.9-7.4-32.1c0-21.2,5.5-37.5,16.4-48.7
			c10.9-11.2,25.7-16.8,44.3-16.8c19.5,0,34.5,5.6,45,16.8c10.5,11.2,15.9,27.1,16.1,47.6c0,6.7-3,10-8.9,10h-9.2
			c-5,0-7.5-2.7-7.5-8.2c-0.2-14.3-3.4-24.8-9.5-31.3c-6.1-6.6-14.8-9.8-25.9-9.8c-11.8,0-20.7,3.2-26.6,9.5
			c-5.9,6.3-8.9,15.6-8.9,27.8c0,10,2.5,18.1,7.4,24.2s11,11.3,18.4,15.8c7.3,4.4,15.3,8.5,23.8,12.4c8.5,3.8,16.5,8.5,23.8,14
			c7.3,5.5,13.5,12.5,18.4,21c4.9,8.5,7.4,19.5,7.4,33.1c0,10.3-1.6,19.4-4.9,27.4c-3.3,8-7.8,14.7-13.6,20.2
			c-5.8,5.5-12.6,9.7-20.3,12.5C1836.8,941.5,1828.4,943,1819.4,943z"/>
		<path class="st11" d="M1055.7,1083.9c5.9,0,8.9,3.1,8.9,9.3v53.3c0,6.2-3,9.3-8.9,9.3h-8.5c-5.9,0-8.9-3.1-8.9-9.3v-33h-80.6v93.4
			h77.9c5.9,0,8.9,3.1,8.9,9.3v11c0,6.2-3,9.3-8.9,9.3h-77.9v60c0,8.5,0.6,15.3,1.9,20.5c1.3,5.2,3.5,9.4,6.8,12.5
			c3.2,3.1,7.8,5.2,13.8,6.3c5.9,1.1,13.6,1.7,22.9,1.7h39.9v-41.4c0-6.2,3-9.3,8.9-9.3h8.5c5.9,0,8.9,3.1,8.9,9.3v61.7
			c0,6.2-3,9.3-8.9,9.3H986c-10.6,0-19.6-1.5-26.9-4.4c-7.4-3-13.3-7.4-17.8-13.3c-4.5-5.9-7.7-13.3-9.7-22.2
			c-1.9-8.9-2.9-19.4-2.9-31.5v-182.2h-18.2c-5.7,0-8.5-3.2-8.5-9.7v-10.1c0-6.5,2.8-9.7,8.5-9.7H1055.7z"/>
		<path class="st11" d="M1124.4,1152.3H1109c-4.8,0-7.2-2.7-7.2-8.2v-8.6c0-5.5,2.4-8.2,7.2-8.2h78.8c23.4,0,41.1,7,53,21.1
			c11.9,14.1,17.9,36.5,17.9,67.3v63c0,30.8-6,53.2-18.1,67.3c-12,14.1-29.6,21.1-52.8,21.1H1109c-4.8,0-7.2-2.7-7.2-8.2v-8.6
			c0-5.5,2.4-8.2,7.2-8.2h15.4V1152.3z M1187.7,1342.1c15.1,0,26.4-4.5,33.8-13.4c7.4-9,11.2-22.9,11.2-41.7v-79.5
			c0-18.9-3.7-32.8-11.2-41.7c-7.4-9-18.7-13.4-33.8-13.4H1149v189.8H1187.7z"/>
		<path class="st11" d="M1432.2,1306.7c0,10-1.8,19-5.3,26.9c-3.5,7.9-8.3,14.6-14.4,20.2c-6.1,5.6-13.2,9.8-21.2,12.7
			c-8,2.9-16.6,4.3-25.8,4.3c-23.2,0-40.8-7.2-52.8-21.5c-12-14.3-18.1-37.1-18.1-68.4v-67c0-31.5,6-54.4,18.1-68.8
			c12-14.3,29.6-21.5,52.8-21.5c9.4,0,18.2,1.4,26.3,4.1c8.1,2.7,15.1,6.8,21,12.2c5.9,5.4,10.5,12.1,13.8,20.1
			c3.3,8,4.9,17.4,4.9,28.1c0,6.7-3,10-8.9,10h-9.2c-5,0-7.5-2.7-7.5-8.2c0-14.3-3.7-24.8-11-31.3c-7.3-6.6-17.1-9.8-29.4-9.8
			c-15.1,0-26.4,4.7-33.8,14c-7.4,9.3-11.2,23.6-11.2,43v83.1c0,19.6,3.7,34,11.2,43.2c7.4,9.2,18.7,13.8,33.8,13.8
			c12.7,0,22.6-3.3,29.9-10c7.2-6.7,10.8-17.2,10.8-31.5v-33.7h-32.2c-5,0-7.5-2.6-7.5-7.9v-9.3c0-5.2,2.5-7.9,7.5-7.9h50.2
			c5.3,0,7.9,2.7,7.9,8.2V1306.7z"/>
		<path class="st11" d="M1583.2,1127.2c5,0,7.5,2.6,7.5,7.9v45.1c0,5.3-2.5,7.9-7.5,7.9h-7.2c-5,0-7.5-2.6-7.5-7.9v-27.9h-68.3v79.2
			h66c5,0,7.5,2.6,7.5,7.9v9.3c0,5.3-2.5,7.9-7.5,7.9h-66v50.9c0,7.2,0.5,13,1.6,17.4c1.1,4.4,3,7.9,5.7,10.6
			c2.7,2.6,6.6,4.4,11.7,5.4c5,1,11.5,1.4,19.4,1.4h33.8V1307c0-5.2,2.5-7.9,7.5-7.9h7.2c5,0,7.5,2.6,7.5,7.9v52.3
			c0,5.3-2.5,7.9-7.5,7.9h-63c-9,0-16.6-1.3-22.8-3.8c-6.2-2.5-11.3-6.3-15.1-11.3c-3.8-5-6.6-11.3-8.2-18.8
			c-1.6-7.5-2.5-16.4-2.5-26.7v-154.4h-15.4c-4.8,0-7.2-2.7-7.2-8.2v-8.6c0-5.5,2.4-8.2,7.2-8.2H1583.2z"/>
	</g>
</g>
</svg>
